<?xml version="1.0" encoding="UTF-8" standalone="no"?>
<!-- Created with Inkscape (http://www.inkscape.org/) -->

<svg
   xmlns:dc="http://purl.org/dc/elements/1.1/"
   xmlns:cc="http://creativecommons.org/ns#"
   xmlns:rdf="http://www.w3.org/1999/02/22-rdf-syntax-ns#"
   xmlns:svg="http://www.w3.org/2000/svg"
   xmlns="http://www.w3.org/2000/svg"
   xmlns:sodipodi="http://sodipodi.sourceforge.net/DTD/sodipodi-0.dtd"
   xmlns:inkscape="http://www.inkscape.org/namespaces/inkscape"
   width="210mm"
   height="297mm"
   id="svg2"
   version="1.1"
   inkscape:version="0.48.4 r9939"
   sodipodi:docname="Neues Dokument 1">
  <defs
     id="defs4" />
  <sodipodi:namedview
     id="base"
     pagecolor="#ffffff"
     bordercolor="#666666"
     borderopacity="1.0"
     inkscape:pageopacity="0.0"
     inkscape:pageshadow="2"
     inkscape:zoom="0.98994949"
     inkscape:cx="-9.2797373"
     inkscape:cy="572.59462"
     inkscape:document-units="px"
     inkscape:current-layer="layer1"
     showgrid="false"
     inkscape:window-width="1920"
     inkscape:window-height="1018"
     inkscape:window-x="1672"
     inkscape:window-y="-8"
     inkscape:window-maximized="1" />
  <metadata
     id="metadata7">
    <rdf:RDF>
      <cc:Work
         rdf:about="">
        <dc:format>image/svg+xml</dc:format>
        <dc:type
           rdf:resource="http://purl.org/dc/dcmitype/StillImage" />
        <dc:title></dc:title>
      </cc:Work>
    </rdf:RDF>
  </metadata>
  <g
     inkscape:label="Ebene 1"
     inkscape:groupmode="layer"
     id="layer1">
    <g
       id="g3897"
       transform="translate(-162.39138,90.564665)">
      <path
         inkscape:connector-curvature="0"
         id="path3782"
         d="m 246.98249,474.68361 329.7164,0"
         style="fill:none;stroke:#aaaaaa;stroke-width:3;stroke-linecap:butt;stroke-linejoin:miter;stroke-miterlimit:4;stroke-opacity:1;stroke-dasharray:none" />
      <path
         transform="matrix(0.56776512,0,0,0.56776512,83.95865,205.24787)"
         d="m 297.99501,474.55493 c 0,9.48416 -7.68843,17.1726 -17.17259,17.1726 -9.48416,0 -17.1726,-7.68844 -17.1726,-17.1726 0,-9.48416 7.68844,-17.17259 17.1726,-17.17259 9.48416,0 17.17259,7.68843 17.17259,17.17259 z"
         sodipodi:ry="17.172594"
         sodipodi:rx="17.172594"
         sodipodi:cy="474.55493"
         sodipodi:cx="280.82242"
         id="path2987"
         style="fill:#ffffff;fill-opacity:1;stroke:#aaaaaa;stroke-width:5.28387499;stroke-linecap:butt;stroke-miterlimit:10;stroke-opacity:1;stroke-dasharray:none;stroke-dashoffset:0"
         sodipodi:type="arc" />
      <path
         transform="matrix(0.56776512,0,0,0.56776512,420.95712,205.24787)"
         d="m 297.99501,474.55493 c 0,9.48416 -7.68843,17.1726 -17.17259,17.1726 -9.48416,0 -17.1726,-7.68844 -17.1726,-17.1726 0,-9.48416 7.68844,-17.17259 17.1726,-17.17259 9.48416,0 17.17259,7.68843 17.17259,17.17259 z"
         sodipodi:ry="17.172594"
         sodipodi:rx="17.172594"
         sodipodi:cy="474.55493"
         sodipodi:cx="280.82242"
         id="path2987-7"
         style="fill:#ffffff;fill-opacity:1;stroke:#aaaaaa;stroke-width:5.28387499;stroke-linecap:butt;stroke-miterlimit:10;stroke-opacity:1;stroke-dasharray:none;stroke-dashoffset:0"
         sodipodi:type="arc" />
      <g
         transform="translate(90.466987,0)"
         id="g3825">
        <path
           sodipodi:type="arc"
           style="fill:#ffffff;fill-opacity:1;stroke:#aaaaaa;stroke-width:5.28387499;stroke-linecap:butt;stroke-miterlimit:10;stroke-opacity:1;stroke-dasharray:none;stroke-dashoffset:0"
           id="path2987-1"
           sodipodi:cx="280.82242"
           sodipodi:cy="474.55493"
           sodipodi:rx="17.172594"
           sodipodi:ry="17.172594"
           d="m 297.99501,474.55493 c 0,9.48416 -7.68843,17.1726 -17.17259,17.1726 -9.48416,0 -17.1726,-7.68844 -17.1726,-17.1726 0,-9.48416 7.68844,-17.17259 17.1726,-17.17259 9.48416,0 17.17259,7.68843 17.17259,17.17259 z"
           transform="matrix(0.56776512,0,0,0.56776512,161.9909,205.24787)" />
        <path
           sodipodi:type="arc"
           style="fill:#aaaaaa;fill-opacity:1;stroke:none"
           id="path2987-1-4"
           sodipodi:cx="280.82242"
           sodipodi:cy="474.55493"
           sodipodi:rx="17.172594"
           sodipodi:ry="17.172594"
           d="m 297.99501,474.55493 c 0,9.48416 -7.68843,17.1726 -17.17259,17.1726 -9.48416,0 -17.1726,-7.68844 -17.1726,-17.1726 0,-9.48416 7.68844,-17.17259 17.1726,-17.17259 9.48416,0 17.17259,7.68843 17.17259,17.17259 z"
           transform="matrix(0.29220147,0,0,0.29220147,239.37535,336.01796)" />
      </g>
    </g>
    <g
       id="g3890"
       transform="translate(0,-76.202189)">
      <path
         inkscape:connector-curvature="0"
         id="path3782-0"
         d="m 84.591106,555.36713 329.716404,0"
         style="fill:none;stroke:#aaaaaa;stroke-width:3;stroke-linecap:butt;stroke-linejoin:miter;stroke-miterlimit:4;stroke-opacity:1;stroke-dasharray:none" />
      <path
         transform="matrix(0.56776512,0,0,0.56776512,-78.43273,285.93139)"
         d="m 297.99501,474.55493 c 0,9.48416 -7.68843,17.1726 -17.17259,17.1726 -9.48416,0 -17.1726,-7.68844 -17.1726,-17.1726 0,-9.48416 7.68844,-17.17259 17.1726,-17.17259 9.48416,0 17.17259,7.68843 17.17259,17.17259 z"
         sodipodi:ry="17.172594"
         sodipodi:rx="17.172594"
         sodipodi:cy="474.55493"
         sodipodi:cx="280.82242"
         id="path2987-9"
         style="fill:#ffffff;fill-opacity:1;stroke:#aaaaaa;stroke-width:5.28387499;stroke-linecap:butt;stroke-miterlimit:10;stroke-opacity:1;stroke-dasharray:none;stroke-dashoffset:0"
         sodipodi:type="arc" />
      <path
         transform="matrix(0.56776512,0,0,0.56776512,258.56574,285.93139)"
         d="m 297.99501,474.55493 c 0,9.48416 -7.68843,17.1726 -17.17259,17.1726 -9.48416,0 -17.1726,-7.68844 -17.1726,-17.1726 0,-9.48416 7.68844,-17.17259 17.1726,-17.17259 9.48416,0 17.17259,7.68843 17.17259,17.17259 z"
         sodipodi:ry="17.172594"
         sodipodi:rx="17.172594"
         sodipodi:cy="474.55493"
         sodipodi:cx="280.82242"
         id="path2987-7-4"
         style="fill:#ffffff;fill-opacity:1;stroke:#aaaaaa;stroke-width:5.28387499;stroke-linecap:butt;stroke-miterlimit:10;stroke-opacity:1;stroke-dasharray:none;stroke-dashoffset:0"
         sodipodi:type="arc" />
      <path
         transform="matrix(0.56776512,0,0,0.56776512,90.0665,285.93139)"
         d="m 297.99501,474.55493 c 0,9.48416 -7.68843,17.1726 -17.17259,17.1726 -9.48416,0 -17.1726,-7.68844 -17.1726,-17.1726 0,-9.48416 7.68844,-17.17259 17.1726,-17.17259 9.48416,0 17.17259,7.68843 17.17259,17.17259 z"
         sodipodi:ry="17.172594"
         sodipodi:rx="17.172594"
         sodipodi:cy="474.55493"
         sodipodi:cx="280.82242"
         id="path2987-1-8"
         style="fill:#ffffff;fill-opacity:1;stroke:#aaaaaa;stroke-width:5.28387499;stroke-linecap:butt;stroke-miterlimit:10;stroke-opacity:1;stroke-dasharray:none;stroke-dashoffset:0"
         sodipodi:type="arc" />
      <path
         transform="matrix(0.29220147,0,0,0.29220147,-1.0482794,416.70148)"
         d="m 297.99501,474.55493 c 0,9.48416 -7.68843,17.1726 -17.17259,17.1726 -9.48416,0 -17.1726,-7.68844 -17.1726,-17.1726 0,-9.48416 7.68844,-17.17259 17.1726,-17.17259 9.48416,0 17.17259,7.68843 17.17259,17.17259 z"
         sodipodi:ry="17.172594"
         sodipodi:rx="17.172594"
         sodipodi:cy="474.55493"
         sodipodi:cx="280.82242"
         id="path2987-1-4-2"
         style="fill:#aaaaaa;fill-opacity:1;stroke:none"
         sodipodi:type="arc" />
    </g>
    <g
       id="g3883"
       transform="translate(4.04061,0)">
      <path
         inkscape:connector-curvature="0"
         id="path3782-4"
         d="m 80.550496,651.33163 329.716404,0"
         style="fill:none;stroke:#aaaaaa;stroke-width:3;stroke-linecap:butt;stroke-linejoin:miter;stroke-miterlimit:4;stroke-opacity:1;stroke-dasharray:none" />
      <path
         transform="matrix(0.56776512,0,0,0.56776512,-82.47334,381.89588)"
         d="m 297.99501,474.55493 c 0,9.48416 -7.68843,17.1726 -17.17259,17.1726 -9.48416,0 -17.1726,-7.68844 -17.1726,-17.1726 0,-9.48416 7.68844,-17.17259 17.1726,-17.17259 9.48416,0 17.17259,7.68843 17.17259,17.17259 z"
         sodipodi:ry="17.172594"
         sodipodi:rx="17.172594"
         sodipodi:cy="474.55493"
         sodipodi:cx="280.82242"
         id="path2987-5"
         style="fill:#ffffff;fill-opacity:1;stroke:#aaaaaa;stroke-width:5.28387499;stroke-linecap:butt;stroke-miterlimit:10;stroke-opacity:1;stroke-dasharray:none;stroke-dashoffset:0"
         sodipodi:type="arc" />
      <path
         transform="matrix(0.56776512,0,0,0.56776512,254.52513,381.89588)"
         d="m 297.99501,474.55493 c 0,9.48416 -7.68843,17.1726 -17.17259,17.1726 -9.48416,0 -17.1726,-7.68844 -17.1726,-17.1726 0,-9.48416 7.68844,-17.17259 17.1726,-17.17259 9.48416,0 17.17259,7.68843 17.17259,17.17259 z"
         sodipodi:ry="17.172594"
         sodipodi:rx="17.172594"
         sodipodi:cy="474.55493"
         sodipodi:cx="280.82242"
         id="path2987-7-5"
         style="fill:#ffffff;fill-opacity:1;stroke:#aaaaaa;stroke-width:5.28387499;stroke-linecap:butt;stroke-miterlimit:10;stroke-opacity:1;stroke-dasharray:none;stroke-dashoffset:0"
         sodipodi:type="arc" />
      <path
         transform="matrix(0.56776512,0,0,0.56776512,86.02589,381.89588)"
         d="m 297.99501,474.55493 c 0,9.48416 -7.68843,17.1726 -17.17259,17.1726 -9.48416,0 -17.1726,-7.68844 -17.1726,-17.1726 0,-9.48416 7.68844,-17.17259 17.1726,-17.17259 9.48416,0 17.17259,7.68843 17.17259,17.17259 z"
         sodipodi:ry="17.172594"
         sodipodi:rx="17.172594"
         sodipodi:cy="474.55493"
         sodipodi:cx="280.82242"
         id="path2987-1-7"
         style="fill:#ffffff;fill-opacity:1;stroke:#aaaaaa;stroke-width:5.28387499;stroke-linecap:butt;stroke-miterlimit:10;stroke-opacity:1;stroke-dasharray:none;stroke-dashoffset:0"
         sodipodi:type="arc" />
      <path
         transform="matrix(0.29220147,0,0,0.29220147,331.90958,512.66597)"
         d="m 297.99501,474.55493 c 0,9.48416 -7.68843,17.1726 -17.17259,17.1726 -9.48416,0 -17.1726,-7.68844 -17.1726,-17.1726 0,-9.48416 7.68844,-17.17259 17.1726,-17.17259 9.48416,0 17.17259,7.68843 17.17259,17.17259 z"
         sodipodi:ry="17.172594"
         sodipodi:rx="17.172594"
         sodipodi:cy="474.55493"
         sodipodi:cx="280.82242"
         id="path2987-1-4-1"
         style="fill:#aaaaaa;fill-opacity:1;stroke:none"
         sodipodi:type="arc" />
    </g>
  </g>
</svg>
